<svg xmlns="http://www.w3.org/2000/svg" viewBox="0 0 214.53 180.71"><defs><style>.cls-1{fill:#fee2c5;}.cls-2{fill:#f60;}</style></defs><g id="Layer_2" data-name="Layer 2"><g id="Objects"><path class="cls-1" d="M96.3,39.28l19,32.83q3.21-.06,6.45-.06,8.33,0,16.41.37L96.3,0,50.35,79.57c8-1.82,16.45-3.34,25.3-4.53ZM62.28,71l34-58.93,31.15,54c-1.91,0-3.84,0-5.75,0h-3L101.53,36.25,96.3,27.19l-5.24,9.06L71.89,69.46C68.65,69.93,65.44,70.45,62.28,71Z"/><path class="cls-2" d="M68.12,180.71c-23.7-10.41-38.18-24.35-38.18-39.66a27.21,27.21,0,0,1,4.62-14.75H169.22L144.68,83.81c9.34-.77,19-1.18,28.9-1.18a344.76,344.76,0,0,1,38.49,2.12c-.71-.23-1.43-.44-2.15-.66.72.22,1.44.43,2.15.66l2.46.29q-3.24-.83-6.6-1.57h0a315.53,315.53,0,0,0-67.51-7H140c-5.57,0-11.07.13-16.47.38q-2.7.14-5.37.3h0A297.48,297.48,0,0,0,70.59,83.8c-1.24.28-2.48.57-3.7.87A199.58,199.58,0,0,0,43.17,92C16.56,102.23,0,116.61,0,132.55,0,153,27.31,170.91,68.12,180.71Zm55.32-94.42,11.76,20.37H57.46C73.92,97.48,96.81,90.32,123.44,86.29Z"/></g></g></svg>